<svg width="38" height="25" viewBox="0 0 38 25" fill="none" xmlns="http://www.w3.org/2000/svg">
<path d="M2.15984 0.0800781C1.33526 0.0800781 0.666504 0.781743 0.666504 1.64734V23.1189C0.666504 23.9844 1.33559 24.6861 2.15984 24.6861H36.5065C37.3311 24.6861 37.9998 23.9845 37.9998 23.1189V1.64734C37.9998 0.781782 37.3307 0.0800781 36.5065 0.0800781H2.15984ZM22.9638 7.41315C23.8724 7.41315 24.6006 7.62379 25.065 7.81966L24.7477 9.91466L24.5377 9.80323C24.1051 9.60736 23.5494 9.41886 22.783 9.43222C21.8655 9.43222 21.4413 9.86177 21.4413 10.2637C21.436 10.7165 21.9369 11.0151 22.7561 11.4623C24.1082 12.1523 24.7332 12.9889 24.7244 14.0887C24.7061 16.0955 23.1069 17.3922 20.6433 17.3922C19.5923 17.3801 18.5797 17.1466 18.0323 16.8767L18.3613 14.7119L18.6635 14.8662C19.4332 15.2272 19.9316 15.3732 20.8697 15.3732C21.5433 15.3732 22.2663 15.0772 22.272 14.4291C22.2764 14.006 21.9698 13.7043 21.0575 13.2304C20.1685 12.7679 18.99 11.9932 19.003 10.604C19.0169 8.72484 20.648 7.41315 22.9638 7.41315ZM3.96815 7.72049H7.75166C8.26115 7.74071 8.67249 7.91287 8.8145 8.49312L9.63001 12.9108C9.63012 12.9112 9.62986 12.9128 9.63001 12.9133L9.87499 14.2369L12.1721 7.72049H14.6572L10.9635 17.2588L8.48082 17.2612L6.5045 9.56446C7.68043 10.2183 8.68156 10.9748 9.26134 12.0158C9.11186 11.6864 8.91489 11.3145 8.66285 10.9481C8.36934 10.5213 7.73546 9.9703 7.4705 9.73588C6.54725 8.91906 5.29341 8.25936 3.93899 7.91029L3.96815 7.72049ZM15.6453 7.7315H18.0755L16.5553 17.2551H14.1252L15.6453 7.7315ZM29.3712 7.7315H31.2122L33.1395 17.2551H30.9298C30.9298 17.2551 30.7106 16.161 30.6393 15.8274C30.292 15.8274 27.863 15.8238 27.5897 15.8238C27.4972 16.0816 27.088 17.2551 27.088 17.2551H24.5878L28.124 8.5225C28.3744 7.90194 28.8011 7.7315 29.3712 7.7315ZM29.552 10.293C29.4324 10.6472 29.2242 11.2193 29.2381 11.1942C29.2381 11.1942 28.4901 13.288 28.2944 13.8316L30.2601 13.8304C30.0775 12.9222 29.8948 12.0141 29.7118 11.1061L29.552 10.2931V10.293Z" fill="#32394D"/>
</svg>
