<svg width="79" height="25" viewBox="0 0 79 25" fill="none" xmlns="http://www.w3.org/2000/svg">
<path d="M0.000706516 12.3615C0.0006779 8.41299 0.000796055 4.46449 0.00105973 0.515992C0.00114353 0.0293983 -0.0325299 0.0878923 0.427452 0.0875182C2.54479 0.0857958 4.66213 0.0853895 6.77947 0.0863025C8.73591 0.0843709 10.3418 1.37584 10.8204 3.33237C11.4955 6.09181 12.2177 8.83894 12.9188 11.5916C13.1526 12.5093 13.3868 13.427 13.6132 14.3467C13.6674 14.567 13.7362 14.7049 14.0028 14.7034C14.2783 14.7019 14.325 14.5387 14.3785 14.3285C14.8821 12.3493 15.3878 10.3706 15.8957 8.39253C16.322 6.71943 16.746 5.04568 17.1676 3.37128C17.6072 1.62818 18.6709 0.555131 20.38 0.184635C20.6613 0.123735 20.9478 0.0923656 21.2352 0.0910042C23.3706 0.0833749 25.506 0.0920311 27.6413 0.0804657C27.9152 0.0789863 27.9923 0.157135 27.992 0.439652C27.9853 8.40183 27.9854 16.364 27.9922 24.3262C27.9924 24.6114 27.9115 24.6846 27.6399 24.6831C25.5586 24.6716 23.4773 24.6769 21.396 24.6768C21.0405 24.6768 21.0397 24.6763 21.0397 24.3139C21.0396 19.7043 21.0396 15.0946 21.0396 10.485C21.0396 10.0987 20.9838 10.0292 20.6472 10.0961C20.5886 10.1165 20.535 10.1502 20.4906 10.1948C20.4462 10.2394 20.412 10.2937 20.3905 10.3538C20.0894 11.3873 19.8052 12.4261 19.5175 13.4638C18.982 15.3952 18.4468 17.3267 17.9121 19.2583C17.4459 20.9394 16.9737 22.6188 16.5168 24.3026C16.4431 24.5741 16.3454 24.6905 16.0441 24.686C14.6568 24.6653 13.2691 24.6711 11.8816 24.6826C11.6475 24.6846 11.554 24.6035 11.4915 24.3753C10.8634 22.0846 10.2234 19.7974 9.58899 17.5085C9.09331 15.7201 8.59923 13.9312 8.10677 12.1419C7.94128 11.5429 7.76303 10.9473 7.61347 10.3441C7.54263 10.0584 7.36251 10.0433 7.14254 10.0594C6.89586 10.0774 6.95923 10.2756 6.95913 10.4179C6.95593 14.9903 6.95504 19.5628 6.95646 24.1352C6.95646 24.1911 6.95662 24.247 6.95647 24.3028C6.95543 24.6761 6.95541 24.6767 6.6046 24.6768C5.18103 24.6771 3.75746 24.6771 2.33388 24.6769C1.70319 24.6769 1.07248 24.6787 0.441794 24.6762C-0.0475088 24.6742 0.00144248 24.738 0.00130145 24.207C0.000253554 20.2585 5.51607e-05 16.31 0.000706516 12.3615Z" fill="#32394D"/>
<path d="M37.9242 0.106631C37.9242 0.265662 37.9242 0.394076 37.9242 0.522492C37.9242 5.09472 37.9257 9.66694 37.9287 14.2392C37.9288 14.3996 37.8219 14.6363 38.1037 14.6888C38.4053 14.7451 38.5099 14.6785 38.6375 14.3664C40.2141 10.5107 41.7903 6.65483 43.3661 2.79876C43.8052 1.72159 44.465 0.861596 45.5143 0.367846C45.9053 0.177094 46.3325 0.0787968 46.7648 0.0800907C48.7017 0.0956537 50.6388 0.0867126 52.5759 0.086795C52.9807 0.0868119 52.9812 0.0870242 52.9813 0.491083C52.9813 8.42497 52.9813 16.3589 52.9812 24.2927C52.9812 24.6761 52.9804 24.6768 52.611 24.6769C50.5478 24.6771 48.4846 24.6771 46.4214 24.6769C46.0327 24.6769 46.0324 24.6766 46.0324 24.258C46.0323 19.6485 46.0322 15.0391 46.0321 10.4297C46.0321 10.0601 45.9943 10.0115 45.6472 10.0692C45.5867 10.086 45.5303 10.1159 45.482 10.1571C45.4336 10.1983 45.3943 10.2497 45.3668 10.3079C44.5201 12.3919 43.6873 14.4819 42.8466 16.5686C42.0614 18.5175 41.2984 20.4768 40.4716 22.4067C39.9551 23.6124 38.9831 24.3139 37.763 24.6516C37.6391 24.6763 37.5126 24.6845 37.3867 24.676C35.3595 24.6773 33.3324 24.6721 31.3053 24.6828C31.0418 24.6842 30.9719 24.6019 30.9721 24.3358C30.9781 16.3647 30.979 8.39354 30.9749 0.422402C30.9748 0.211979 30.9893 0.0796566 31.2575 0.0809743C33.3927 0.0914598 35.528 0.0867045 37.6633 0.0875657C37.7343 0.0875911 37.8053 0.0976307 37.9242 0.106631Z" fill="#32394D"/>
<path d="M56.0907 24.6768C56.0818 24.5411 56.0685 24.4323 56.0685 24.3234C56.0675 20.0957 56.0673 15.868 56.0679 11.6403C56.068 11.2651 56.0704 11.2623 56.4245 11.2623C63.3708 11.262 70.3172 11.2621 77.2636 11.2625C77.6223 11.2625 77.6306 11.2742 77.5008 11.6166C76.6537 13.8505 75.2023 15.4802 73.0228 16.3697C72.1773 16.6989 71.2791 16.8591 70.3758 16.8417C68.0513 16.8416 65.7269 16.8416 63.4024 16.8417C63.0164 16.8417 63.0154 16.842 63.0154 17.2498C63.015 19.5964 63.015 21.9431 63.0151 24.2897C63.0151 24.6766 63.0144 24.6768 62.65 24.6768C60.5778 24.6768 58.5056 24.6768 56.4334 24.6768H56.0907Z" fill="#32394D"/>
<path d="M78.0517 8.92117C78.0232 9.26338 77.9947 9.60558 77.9662 9.94778C77.9675 9.98306 77.9611 10.0182 77.9476 10.0506C77.9341 10.083 77.9138 10.1119 77.8882 10.1353C77.8626 10.1586 77.8323 10.1757 77.7994 10.1854C77.7666 10.1951 77.7321 10.1972 77.6984 10.1914C77.6265 10.189 77.5543 10.1926 77.4823 10.1926C74.7255 10.1916 71.9687 10.1901 69.2119 10.1882C68.0409 10.1862 66.8697 10.1851 65.6991 10.1595C63.7017 10.1157 61.8765 9.48839 60.2159 8.35269C58.1533 6.94205 56.6942 5.01692 55.7966 2.64801C55.5192 1.91609 55.3676 1.13344 55.1556 0.374838C55.0975 0.166913 55.1635 0.0718841 55.3745 0.0886019C55.4103 0.0914402 55.4465 0.0884804 55.4826 0.088473C60.5457 0.0876135 65.6088 0.0864281 70.6719 0.0849128C71.5016 0.0810527 72.3232 0.253676 73.0857 0.592055C73.0051 0.592312 72.9247 0.582747 72.8462 0.563561C71.5424 0.0739722 70.197 0.0988148 68.8449 0.217009C68.5318 0.244377 68.2204 0.294436 67.9092 0.340894C67.7259 0.368263 67.6194 0.455262 67.6451 0.679291C67.6617 0.891179 67.6653 1.10395 67.6558 1.31631C67.6474 2.15975 67.6265 3.0032 67.6293 3.84658C67.6321 4.67041 67.6723 5.49419 67.6701 6.31793C67.6675 7.34106 67.6308 8.3641 67.6283 9.38723C67.6279 9.55284 67.6852 9.81381 67.7913 9.86563C68.0568 9.99988 68.3468 10.0742 68.6422 10.0837C71.6065 10.0989 74.5708 10.094 77.5351 10.0937C77.868 10.0936 77.9086 10.043 77.9435 9.68993C77.969 9.43256 78.0149 9.17735 78.0517 8.92117Z" fill="#495169"/>
<path d="M78.0517 8.92117C78.0149 9.17735 77.969 9.43256 77.9435 9.68993C77.9086 10.043 77.868 10.0936 77.5351 10.0937C74.5708 10.094 71.6065 10.0989 68.6422 10.0837C68.3468 10.0742 68.0568 9.99988 67.7913 9.86563C67.6852 9.81381 67.6279 9.55284 67.6283 9.38723C67.6308 8.3641 67.6675 7.34106 67.6701 6.31793C67.6723 5.49419 67.6321 4.67041 67.6293 3.84658C67.6265 3.0032 67.6474 2.15975 67.6558 1.31631C67.6653 1.10395 67.6617 0.891179 67.6451 0.679291C67.6194 0.455262 67.7259 0.368263 67.9092 0.340894C68.2204 0.294436 68.5318 0.244377 68.8449 0.217009C70.197 0.0988148 71.5424 0.0739722 72.8462 0.563561C72.9247 0.582747 73.0051 0.592312 73.0857 0.592055C73.887 0.881005 74.6231 1.33563 75.249 1.92813C77.2567 3.79519 78.1616 6.14306 78.0517 8.92117Z" fill="#32394D"/>
</svg>
