<svg width="105" height="25" viewBox="0 0 105 25" fill="none" xmlns="http://www.w3.org/2000/svg">
<path d="M39.9411 3.49672H41.9132C41.9132 3.65984 41.9131 3.79731 41.9132 3.93478C41.9132 5.21734 41.9133 6.49991 41.9135 7.78247C41.9136 7.93635 41.9108 8.09059 41.9195 8.24405C42.0098 9.83792 43.0042 10.625 44.5257 10.3089C45.4874 10.1091 46.1486 9.35235 46.2058 8.2326C46.2719 6.94074 46.2536 5.64426 46.2704 4.34976C46.274 4.0715 46.2709 3.79315 46.2709 3.49367H48.2205C48.231 3.6259 48.2476 3.73739 48.2477 3.84889C48.2488 6.34989 48.2673 8.8511 48.2406 11.3518C48.2241 12.8982 47.6966 14.2248 46.3829 15.0829C45.1363 15.8971 43.7717 15.8953 42.3883 15.5442C41.5001 15.3188 40.5815 14.7866 40.1035 14.2424C40.4355 13.8734 40.7604 13.49 41.115 13.1386C41.1801 13.0741 41.3902 13.0943 41.4922 13.1524C42.1426 13.523 42.8248 13.7899 43.5698 13.8242C43.953 13.8501 44.3378 13.8259 44.7151 13.7521C45.7625 13.5202 46.347 12.5837 46.1932 11.3788C46.0787 11.4731 45.9882 11.5475 45.8977 11.622C44.4733 12.7942 42.0247 12.5587 40.8534 11.1267C40.1814 10.305 39.9292 9.31586 39.9088 8.27098C39.8793 6.75817 39.8982 5.24434 39.8992 3.73096C39.9065 3.65175 39.9205 3.57337 39.9411 3.49672Z" fill="#32394D"/>
<path d="M20.1973 0.566723C20.4486 0.566723 20.6695 0.566689 20.8905 0.566727C22.0821 0.566934 23.2739 0.557108 24.4654 0.56961C26.5369 0.591349 28.3578 2.25567 28.5638 4.30012C28.7877 6.5214 27.4457 8.54869 25.3527 8.98381C24.5255 9.15579 23.6496 9.0845 22.7955 9.11073C22.2916 9.12621 22.2904 9.11453 22.2899 9.63471C22.2891 10.4293 22.2819 11.2241 22.2938 12.0185C22.2977 12.2838 22.2136 12.3782 21.9515 12.3705C21.3721 12.3535 20.7918 12.3652 20.1973 12.3652L20.1973 0.566723ZM22.2896 6.92909C23.1072 6.92909 23.8527 6.97115 24.5921 6.91934C25.7326 6.83942 26.5067 5.89633 26.4694 4.71421C26.4354 3.63585 25.5684 2.783 24.4613 2.75669C23.8538 2.74226 23.2454 2.76714 22.6382 2.74762C22.3489 2.73833 22.2811 2.85796 22.2855 3.13113C22.2983 3.93777 22.2898 4.74475 22.2896 5.5516C22.2896 5.9968 22.2896 6.442 22.2896 6.92909Z" fill="#32394D"/>
<path d="M0.575695 12.8642C0.968193 12.395 1.31267 11.9796 1.66081 11.5676C2.99135 9.99289 4.31696 8.41363 5.66031 6.85064C5.88649 6.58749 5.90037 6.43132 5.66676 6.15855C4.05461 4.27618 2.46078 2.37708 0.861483 0.482983C0.780892 0.387539 0.70415 0.288623 0.575684 0.129456C0.693371 0.107974 0.812085 0.0929872 0.931318 0.0845604C2.14828 0.0819534 3.36539 0.0734009 4.58204 0.0936181C4.77172 0.105963 4.95003 0.191235 5.08182 0.332618C6.76553 2.30365 8.43294 4.28952 10.1124 6.26441C10.2728 6.45298 10.2552 6.56721 10.1036 6.74565C8.42504 8.72147 6.75596 10.7059 5.07592 12.6803C4.98118 12.7916 4.81372 12.9004 4.67884 12.9021C3.38757 12.9182 2.09602 12.9113 0.804562 12.9093C0.727389 12.8995 0.650931 12.8845 0.575695 12.8642Z" fill="#32394D"/>
<path d="M7.45021 0.0827302C7.60639 0.0827302 7.76256 0.0827302 7.91873 0.0827302C9.06087 0.0827641 10.2032 0.0718581 11.345 0.0940335C11.5463 0.10466 11.7365 0.192542 11.8783 0.340447C13.5539 2.30084 15.2114 4.27775 16.8817 6.24295C17.0439 6.4338 17.0604 6.55058 16.8901 6.7508C15.2104 8.72463 13.543 10.7095 11.8635 12.6836C11.7619 12.8053 11.6198 12.8833 11.4652 12.9023C10.1743 12.918 8.88313 12.911 7.59203 12.9088C7.52351 12.8995 7.45578 12.8848 7.38947 12.8648C7.5253 12.6893 7.63136 12.5415 7.74806 12.4032C9.32201 10.5383 10.8926 8.67027 12.4783 6.81596C12.6892 6.56921 12.6837 6.42657 12.4757 6.18306C10.8989 4.33776 9.3369 2.47901 7.77058 0.624207C7.64995 0.481365 7.53144 0.336618 7.41195 0.192758L7.45021 0.0827302Z" fill="#32394D"/>
<path d="M36.0589 4.44198C36.0713 4.34567 36.0816 4.29685 36.0833 4.2477C36.1115 3.46613 36.1112 3.46608 36.8573 3.46614C37.1676 3.46616 37.4785 3.4782 37.7881 3.46271C38.0213 3.45105 38.0888 3.55566 38.0885 3.7788C38.0853 6.56019 38.086 9.34159 38.0908 12.123C38.0915 12.3995 37.9809 12.4734 37.7337 12.4651C37.2997 12.4506 36.864 12.4439 36.4307 12.4672C36.1399 12.4829 36.0558 12.3646 36.0823 12.0879C36.0992 11.911 36.0854 11.7311 36.0854 11.4652C35.0609 12.3418 33.9522 12.7331 32.6796 12.5177C31.4209 12.3048 30.4364 11.6516 29.7519 10.5427C28.5912 8.66245 28.8872 6.09101 30.3969 4.56541C31.6386 3.31064 34.0878 2.70431 36.0589 4.44198ZM35.9524 7.97673C35.9549 6.49472 34.8848 5.35586 33.4911 5.35739C32.1154 5.3589 31.0523 6.48642 31.0425 7.95437C31.0328 9.41859 32.092 10.5583 33.4698 10.5662C34.8849 10.5743 35.9498 9.46356 35.9524 7.97673Z" fill="#32394D"/>
<path d="M80.8006 11.415C80.8006 11.9209 80.8007 12.3274 80.8006 12.7339C80.8004 13.5546 80.7927 14.3754 80.8041 15.1959C80.808 15.479 80.7076 15.5879 80.434 15.5772C80.0619 15.5626 79.6879 15.558 79.3166 15.5808C78.9931 15.6006 78.8811 15.4812 78.8842 15.1423C78.8977 13.6806 78.8891 12.2186 78.8892 10.7568C78.8892 9.79501 78.8613 8.83212 78.8968 7.87174C78.9659 6.00761 79.7872 4.58862 81.4391 3.80414C83.0207 3.05304 84.5948 3.19524 85.9606 4.33935C87.4491 5.58628 87.8793 7.2757 87.4214 9.15649C86.9792 10.9729 85.8208 12.1081 84.0146 12.4486C82.9342 12.6522 81.9411 12.4034 81.0942 11.6444C81.0305 11.5874 80.9598 11.5388 80.8006 11.415ZM80.79 7.92752C80.7874 9.50362 81.7297 10.5609 83.1402 10.5645C84.5727 10.5681 85.6526 9.45371 85.6625 7.96159C85.6725 6.44014 84.6065 5.31227 83.155 5.30869C81.7398 5.3052 80.7926 6.35407 80.79 7.92752Z" fill="#32394D"/>
<path d="M67.7078 10.9993C67.6629 11.0767 67.6513 11.1176 67.6249 11.1394C66.0521 12.4341 63.8156 12.9379 61.9538 12.0566C59.9916 11.1277 59.0546 8.83263 59.6874 6.53549C60.2647 4.43971 62.1919 3.12386 64.312 3.37801C66.5707 3.64876 68.0468 5.33794 67.9813 7.57941C67.9772 7.72004 67.9522 7.85993 67.9463 8.00058C67.9306 8.3768 67.7694 8.52003 67.3821 8.5156C65.5814 8.49497 63.7804 8.5058 61.9795 8.5074C61.4765 8.50784 61.4308 8.56699 61.5698 9.05908C61.8199 9.94447 62.4381 10.414 63.2763 10.584C64.3543 10.8026 65.3816 10.5821 66.3408 10.062C66.6363 9.90182 66.799 9.94562 66.9926 10.1934C67.2097 10.4712 67.4593 10.7221 67.7078 10.9993ZM66.0262 6.90833C65.8254 5.81865 64.8493 5.11776 63.7072 5.19639C62.651 5.26911 61.718 6.03943 61.6817 6.90833H66.0262Z" fill="#32394D"/>
<path d="M77.3103 11.044C76.4802 11.7328 75.6012 12.194 74.6097 12.3803C72.8617 12.7086 71.2858 12.3674 70.0742 10.927C68.7645 9.36983 68.7281 6.7283 69.9555 5.06027C71.1416 3.44841 73.4573 2.88583 75.308 3.75992C76.877 4.50098 77.8037 6.3317 77.5065 8.07338C77.4512 8.39765 77.3166 8.51574 76.9898 8.51319C75.1649 8.49893 73.3397 8.50569 71.5147 8.50748C71.0308 8.50796 70.9915 8.55783 71.1263 9.04057C71.3776 9.93979 71.9997 10.4207 72.8558 10.5876C73.9342 10.7979 74.96 10.5767 75.9176 10.0538C76.2 9.89963 76.3536 9.94115 76.5401 10.1773C76.7662 10.4638 77.0234 10.7242 77.3103 11.044ZM75.575 6.92179C75.4357 5.84531 74.3964 5.10213 73.2394 5.19812C72.1751 5.28642 71.2198 6.10119 71.2522 6.92179H75.575Z" fill="#32394D"/>
<path d="M96.9921 11.0374C96.3102 11.6413 95.5015 12.0729 94.63 12.2983C92.8955 12.7358 91.2834 12.5082 89.967 11.1599C88.4588 9.61514 88.3374 6.81591 89.6579 5.03685C90.9128 3.34605 93.4339 2.84184 95.2824 3.91193C96.6707 4.71555 97.4541 6.42926 97.1917 8.06109C97.1411 8.37606 97.0229 8.51586 96.6854 8.51291C94.873 8.49706 93.0605 8.50517 91.248 8.50624C90.7044 8.50657 90.6627 8.56163 90.8301 9.10428C91.0953 9.96424 91.7075 10.4218 92.532 10.5849C93.6241 10.8011 94.6573 10.5662 95.6292 10.0427C95.8723 9.91173 96.0189 9.92287 96.1935 10.141C96.4359 10.4438 96.7079 10.7214 96.9921 11.0374ZM90.8978 6.89331H95.2721C95.0644 5.84844 94.1722 5.17248 93.0854 5.19031C91.9953 5.2082 91.0706 5.91266 90.8978 6.89331Z" fill="#32394D"/>
<path d="M59.6494 0.686141C59.4233 0.970856 59.1987 1.25679 58.9709 1.54009C57.7341 3.07876 56.5024 4.62193 55.2532 6.14982C55.0524 6.39537 55.0454 6.54298 55.248 6.79176C56.6463 8.50842 58.0287 10.2389 59.4155 11.9656C59.4922 12.061 59.5623 12.1621 59.699 12.346C59.1506 12.346 58.6797 12.2923 58.2247 12.3575C57.3679 12.4804 56.8215 12.145 56.3067 11.4265C55.1705 9.84083 53.9406 8.32628 52.7336 6.79557C52.5353 6.54417 52.5484 6.39137 52.741 6.1461C54.1095 4.40401 55.4677 2.65339 56.8157 0.894245C56.8857 0.790454 56.9806 0.707213 57.0911 0.65268C57.2016 0.598147 57.3239 0.574195 57.4461 0.583169C58.1633 0.600769 58.8811 0.589072 59.5987 0.589072C59.6156 0.621428 59.6325 0.653784 59.6494 0.686141Z" fill="#32394D"/>
<path d="M100.587 4.61434C100.769 4.46769 100.855 4.40153 100.938 4.3303C101.751 3.62984 102.704 3.37623 103.742 3.38958C103.974 3.39255 104.081 3.47983 104.075 3.73137C104.063 4.1667 104.064 4.60275 104.074 5.03815C104.08 5.2755 103.975 5.35902 103.76 5.34969C103.612 5.34322 103.463 5.34973 103.314 5.35129C101.688 5.36826 100.703 6.31691 100.644 8.00153C100.598 9.29403 100.626 10.5893 100.621 11.8834C100.619 12.394 100.616 12.3969 100.123 12.3986C99.7381 12.4 99.3534 12.393 98.9688 12.3994C98.7328 12.4033 98.6368 12.2991 98.6371 12.0536C98.6412 9.31158 98.6413 6.56957 98.6377 3.82755C98.6373 3.58131 98.7304 3.48282 98.9688 3.48866C99.3905 3.49899 99.8129 3.50024 100.234 3.48801C100.487 3.48066 100.601 3.57959 100.589 3.84536C100.579 4.0686 100.587 4.29275 100.587 4.61434Z" fill="#32394D"/>
<path d="M52.1968 6.4823C52.1971 8.27578 52.1899 10.0693 52.2034 11.8627C52.206 12.2058 52.1181 12.353 51.7668 12.329C51.3828 12.3036 50.9976 12.3035 50.6136 12.3288C50.2674 12.3512 50.1704 12.2135 50.1719 11.8647C50.1833 9.12332 50.178 6.38183 50.1779 3.64036C50.1778 2.75642 50.1868 1.87235 50.173 0.988648C50.1683 0.692309 50.259 0.571811 50.5548 0.584823C50.9759 0.60334 51.3989 0.603727 51.82 0.584769C52.1153 0.57147 52.203 0.690502 52.2014 0.986578C52.1917 2.81844 52.1966 4.65038 52.1968 6.4823Z" fill="#32394D"/>
<path d="M82.7634 23.3176C82.7634 23.6461 82.7639 23.9142 82.7633 24.1824C82.762 24.7287 82.7581 24.7318 82.1438 24.6432V23.3598C81.8457 23.4247 81.5758 23.519 81.3014 23.5363C80.6509 23.5772 80.1703 23.2655 79.8915 22.6663C79.6998 22.2752 79.5979 21.8438 79.5938 21.4055C79.5897 20.9672 79.6835 20.5338 79.868 20.1391C80.2423 19.303 81.0891 18.9955 81.9031 19.3654C81.9679 19.3948 82.0347 19.4194 82.1444 19.4641C82.1444 19.0036 82.153 18.5836 82.141 18.1643C82.1343 17.9293 82.2233 17.8496 82.4463 17.8513C82.6585 17.8529 82.7717 17.9076 82.7653 18.1529C82.7542 18.5736 82.7622 18.9948 82.7622 19.4539C82.9512 19.3805 83.0956 19.3115 83.2469 19.2679C83.9873 19.0543 84.7291 19.4119 85.0575 20.1737C85.2286 20.5539 85.317 20.9682 85.3164 21.3875C85.3158 21.8068 85.2263 22.2208 85.0541 22.6006C84.6838 23.4495 83.8327 23.77 82.9922 23.411C82.9367 23.3873 82.8805 23.3653 82.7634 23.3176ZM82.1437 21.3855C82.1437 21.129 82.1186 20.8692 82.1494 20.6167C82.2006 20.197 81.9849 20.0084 81.6437 19.8932C81.1028 19.7105 80.6029 19.9378 80.4029 20.4883C80.2135 21.0234 80.1932 21.6066 80.3449 22.1543C80.5267 22.8609 81.2294 23.1483 81.8512 22.7897C82.05 22.6751 82.1684 22.53 82.1488 22.27C82.1266 21.9768 82.1437 21.6805 82.1437 21.3855ZM82.7635 21.3901C82.7635 21.684 82.7795 21.9791 82.7587 22.2714C82.7403 22.5295 82.8567 22.6752 83.0558 22.7902C83.6986 23.1616 84.4512 22.8424 84.5761 22.0891C84.6495 21.6461 84.6028 21.1788 84.5818 20.7239C84.5752 20.5803 84.4919 20.432 84.4174 20.3018C84.1917 19.9067 83.7667 19.7458 83.3256 19.8728C82.8509 20.0096 82.7638 20.1435 82.7635 20.7384C82.7634 20.9556 82.7634 21.1728 82.7635 21.3901Z" fill="#32394D"/>
<path d="M46.9855 19.3552C46.4383 19.9702 45.9314 20.5399 45.4026 21.1341L47.0462 23.4099C46.6029 23.5097 46.2932 23.4931 46.0456 23.0839C45.7391 22.5775 45.3638 22.1154 45.0188 21.635C44.4187 22.0828 44.0779 22.6187 44.2625 23.3702C43.7084 23.5602 43.5731 23.4976 43.6365 22.9805C43.7175 22.3188 43.2474 22.0372 42.8913 21.5972C42.5404 22.0866 42.1759 22.5369 41.8772 23.0297C41.6321 23.4342 41.3311 23.5456 40.8469 23.4023C41.3933 22.642 41.9266 21.8999 42.4767 21.1343C41.9554 20.5462 41.4489 19.9746 40.9067 19.3628C41.3383 19.2608 41.6487 19.2517 41.927 19.6061C42.3642 20.1628 42.8474 20.681 43.3132 21.2136C43.3845 21.2952 43.4668 21.3666 43.6237 21.5211C43.6237 20.8286 43.6308 20.234 43.6203 19.6398C43.6159 19.3957 43.6949 19.2928 43.941 19.2972C44.1586 19.3011 44.2531 19.3685 44.2486 19.6079C44.237 20.221 44.2447 20.8344 44.2447 21.5376C44.3745 21.4135 44.4536 21.3486 44.5203 21.2722C45.0025 20.7203 45.5006 20.1816 45.9556 19.6068C46.2334 19.2558 46.5462 19.2639 46.9855 19.3552Z" fill="#32394D"/>
<path d="M91.5229 22.9482V24.667H90.9622V19.3593C91.4841 19.2344 91.4893 19.2381 91.5788 19.8325C92.1255 19.3234 92.7342 19.0796 93.4519 19.2762C93.8877 19.3965 94.2677 19.6734 94.5235 20.0571C94.8174 20.4906 94.9582 21.0151 94.9226 21.543C94.887 22.0708 94.677 22.5701 94.3277 22.9573C93.6183 23.7179 92.6609 23.7355 91.5229 22.9482ZM94.2882 21.3875C94.2843 20.5089 93.6833 19.8265 92.9185 19.8324C92.1415 19.8383 91.5028 20.5552 91.5122 21.4109C91.5216 22.2616 92.1424 22.9295 92.9276 22.9338C93.7231 22.9381 94.2921 22.2914 94.2882 21.3875Z" fill="#32394D"/>
<path d="M99.7541 23.4095C99.1939 23.5253 99.1705 23.5076 99.1695 22.9463C99.1682 22.192 99.1681 21.4377 99.1692 20.6834C99.1386 20.6684 99.1079 20.6533 99.0773 20.6383C98.6595 21.2256 98.2417 21.8129 97.782 22.4591C97.3314 21.8143 96.9099 21.2111 96.4884 20.6078L96.4115 20.6315C96.4115 21.4069 96.4114 22.1823 96.4113 22.9577C96.4107 23.5031 96.3929 23.5171 95.8303 23.4065C95.8213 23.303 95.8033 23.1911 95.8031 23.0791C95.801 21.9503 95.7969 20.8215 95.8085 19.6928C95.8098 19.5654 95.9098 19.3293 95.9542 19.3318C96.1201 19.341 96.3463 19.3773 96.4345 19.4953C96.8967 20.1133 97.3236 20.7594 97.8004 21.4504C98.1422 20.9523 98.4613 20.4861 98.7816 20.0208C98.9183 19.8223 99.0342 19.5995 99.2043 19.438C99.3031 19.3442 99.4908 19.3247 99.6383 19.325C99.6903 19.3251 99.7865 19.4834 99.7869 19.5699C99.7939 20.8139 99.7883 22.058 99.784 23.3021C99.7789 23.3391 99.7688 23.3753 99.7541 23.4095Z" fill="#32394D"/>
<path d="M37.5051 21.6714C37.578 22.2294 37.8142 22.6052 38.2524 22.8056C38.9754 23.1362 39.5772 22.8612 40.1198 22.3038C40.262 22.4353 40.3868 22.5508 40.5087 22.6635C39.8893 23.616 38.5427 23.8437 37.6565 23.1687C36.9778 22.6517 36.6769 21.6742 36.9124 20.7515C37.1264 19.913 37.7491 19.3119 38.5472 19.2258C39.9458 19.0749 40.6638 20.3453 40.5883 21.4662C40.5832 21.5417 40.384 21.6595 40.2731 21.662C39.5039 21.6793 38.7341 21.6713 37.9646 21.6714C37.8296 21.6714 37.6946 21.6714 37.5051 21.6714ZM39.9105 21.0558C39.8262 20.2417 39.3464 19.7861 38.6479 19.8276C38.3499 19.8545 38.0724 19.9953 37.8698 20.2226C37.6672 20.4498 37.5541 20.747 37.5528 21.0558H39.9105Z" fill="#32394D"/>
<path d="M32.3617 23.4423H31.8457C31.821 23.3364 31.7988 23.2413 31.771 23.1222C31.7223 23.1365 31.6751 23.156 31.6304 23.1805C31.0816 23.5789 30.4787 23.6369 29.8526 23.4531C29.2497 23.2762 28.9125 22.8237 28.899 22.2297C28.8852 21.6232 29.1718 21.1268 29.7862 20.9689C30.2908 20.8392 30.8349 20.8694 31.3621 20.8398C31.484 20.8443 31.6053 20.861 31.7242 20.8894C31.8767 19.901 30.9378 19.6112 29.4396 20.1862C29.3673 20.023 29.2936 19.8565 29.2063 19.6594C29.9799 19.2429 30.7475 19.0879 31.5527 19.4183C31.9981 19.601 32.3236 19.969 32.3474 20.4546C32.3955 21.4363 32.3617 22.4224 32.3617 23.4423ZM31.7789 21.5705C31.184 21.3553 30.4589 21.3261 30.0319 21.5002C29.4904 21.7209 29.3605 22.376 29.788 22.7299C30.1237 23.0077 30.8088 23.0111 31.2776 22.7371C31.7009 22.4898 31.8582 22.1236 31.7789 21.5705Z" fill="#32394D"/>
<path d="M75.1405 23.4529C74.8698 23.411 74.5355 23.636 74.5309 23.0675C74.0422 23.4925 73.5073 23.5888 72.9372 23.5294C71.9818 23.4299 71.3945 22.5541 71.7395 21.7064C72.0037 21.057 72.5676 20.8536 73.1882 20.8074C73.6173 20.7755 74.0503 20.8013 74.496 20.8013C74.5931 20.3444 74.2737 19.9134 73.6419 19.8924C73.1629 19.8765 72.6789 20.0199 72.1683 20.0968C71.909 19.6575 71.9173 19.6252 72.4245 19.4379C72.9623 19.2392 73.5113 19.1741 74.0702 19.3282C74.6709 19.4938 75.0836 19.9062 75.1243 20.531C75.1864 21.4846 75.1405 22.4457 75.1405 23.4529ZM73.4939 21.3804L73.4796 21.3314C73.198 21.4133 72.8959 21.4531 72.6394 21.5865C72.2271 21.801 72.1885 22.4215 72.5358 22.7212C73.0713 23.1832 74.2293 22.892 74.491 22.2296C74.6928 21.7188 74.5692 21.4984 74.0471 21.4396C73.8628 21.4188 73.6783 21.4001 73.4939 21.3804Z" fill="#32394D"/>
<path d="M55.3981 23.4424C55.121 23.4119 54.7796 23.6563 54.7757 23.2215C54.3379 23.3293 53.9051 23.5088 53.4654 23.5291C52.5331 23.5722 51.9114 23.0137 51.8958 22.2165C51.8806 21.4373 52.5001 20.8502 53.4117 20.806C53.8533 20.7845 54.2968 20.8023 54.7471 20.8023C54.8597 19.9021 53.99 19.6408 52.4685 20.1692C52.1444 19.6976 52.1653 19.6213 52.683 19.4324C53.2093 19.2404 53.7473 19.1764 54.2937 19.322C54.9209 19.4892 55.36 19.9641 55.3882 20.6223C55.4275 21.5421 55.3981 22.4651 55.3981 23.4424ZM53.4767 23.0126C54.3054 22.94 54.86 22.4304 54.7891 21.7486C54.7802 21.6627 54.6852 21.519 54.6254 21.5165C54.1019 21.494 53.5634 21.4189 53.057 21.5151C52.5374 21.6138 52.3575 22.3176 52.7302 22.6519C52.9297 22.8308 53.2248 22.8961 53.4767 23.0126Z" fill="#32394D"/>
<path d="M104.074 23.4376C103.803 23.4474 103.503 23.5938 103.457 23.1112C102.861 23.5506 102.23 23.6546 101.562 23.4535C100.971 23.2753 100.639 22.8411 100.621 22.2663C100.601 21.6157 100.869 21.132 101.5 20.9686C102.003 20.8381 102.547 20.8696 103.074 20.8388C103.193 20.8418 103.312 20.8556 103.429 20.88C103.505 20.3592 103.248 20.009 102.753 19.9C102.191 19.776 101.679 19.9526 101.184 20.184C100.851 19.6954 100.866 19.6334 101.356 19.4462C101.905 19.237 102.465 19.1737 103.036 19.3318C103.607 19.4897 104.017 19.88 104.057 20.4714C104.121 21.4487 104.074 22.434 104.074 23.4376ZM102.448 21.3812L102.439 21.3441C102.175 21.4086 101.897 21.4372 101.652 21.5455C101.232 21.7308 101.109 22.3162 101.416 22.6421C101.758 23.0066 102.2 22.9914 102.636 22.878C103.055 22.7688 103.391 22.542 103.484 22.0631C103.572 21.6036 103.497 21.5007 103.041 21.444C102.844 21.4194 102.646 21.4019 102.448 21.3812Z" fill="#32394D"/>
<path d="M57.198 21.9272C56.9475 21.7215 56.7014 21.5784 56.5315 21.3692C55.9257 20.6239 56.3504 19.5081 57.3308 19.3655C58.001 19.2681 58.6916 19.3134 59.373 19.3174C59.4445 19.3178 59.5765 19.4693 59.5773 19.5519C59.5904 20.8304 59.5865 22.1092 59.5865 23.3768C59.0351 23.5527 58.9666 23.5037 58.9643 22.9688C58.9632 22.6998 58.962 22.4309 58.9589 22.1619C58.9558 22.1244 58.9496 22.0872 58.9406 22.0507C58.3269 21.8313 57.9314 21.9418 57.5618 22.4344C57.4099 22.6369 57.236 22.8261 57.1114 23.0452C56.8793 23.4536 56.5523 23.5415 56.0781 23.4033C56.4619 22.8975 56.8313 22.4106 57.198 21.9272ZM58.9625 19.9183C58.4671 19.9183 58.0208 19.8877 57.5803 19.9271C57.1529 19.9653 56.9142 20.2492 56.9115 20.617C56.9087 20.997 57.1659 21.2921 57.5969 21.3367C57.9675 21.3717 58.3402 21.3781 58.7118 21.3561C58.7988 21.3517 58.945 21.2087 58.9511 21.1211C58.9776 20.7397 58.9625 20.3553 58.9625 19.9183Z" fill="#32394D"/>
<path d="M87.9919 23.5446C86.8202 23.5505 85.937 22.6303 85.9345 21.401C85.932 20.1763 86.8532 19.2011 88.006 19.2079C89.141 19.2146 90.0608 20.1915 90.0597 21.3891C90.0625 21.6712 90.0111 21.9511 89.9084 22.2126C89.8057 22.4741 89.6538 22.712 89.4615 22.9124C89.2692 23.1129 89.0403 23.272 88.788 23.3805C88.5358 23.489 88.2652 23.5448 87.9919 23.5446ZM89.3979 21.4016C89.4049 20.5328 88.7797 19.8332 87.9927 19.8293C87.2167 19.8255 86.5889 20.4987 86.5744 21.3504C86.5594 22.2331 87.1595 22.9213 87.961 22.9405C88.7503 22.9595 89.3909 22.2733 89.3979 21.4016Z" fill="#32394D"/>
<path d="M48.2228 23.4364H47.6297V19.3713C48.163 19.2162 48.2206 19.2597 48.2227 19.8081C48.2239 20.1285 48.2106 20.4501 48.2343 20.7687C48.2411 20.8606 48.3515 21.0183 48.4177 21.0201C49.0838 21.039 49.7506 21.0316 50.4649 21.0316C50.4649 20.5557 50.4696 20.1237 50.463 19.6919C50.4595 19.4664 50.4692 19.2949 50.7677 19.2953C51.0454 19.2957 51.0935 19.4253 51.0918 19.6717C51.0836 20.8252 51.0885 21.9788 51.0869 23.1323C51.0868 23.2197 51.0731 23.3071 51.0663 23.3877C50.5205 23.5451 50.466 23.5052 50.4649 22.961C50.464 22.5519 50.4647 22.1428 50.4647 21.6525H49.2343C48.223 21.6525 48.223 21.6525 48.2228 22.6975C48.2228 22.9371 48.2228 23.1767 48.2228 23.4364Z" fill="#32394D"/>
<path d="M20.8138 23.4365H20.1674C20.1674 23.1772 20.1673 22.9379 20.1674 22.6987C20.1676 21.6995 20.1755 20.7002 20.1633 19.7011C20.1598 19.415 20.2278 19.2883 20.5336 19.2943C21.4266 19.3116 22.3203 19.2925 23.2132 19.3102C23.3325 19.3126 23.5511 19.4435 23.5523 19.5179C23.5733 20.8088 23.5674 22.1002 23.5674 23.4241H22.9559V19.9265H20.8138L20.8138 23.4365Z" fill="#32394D"/>
<path d="M66.2761 23.4371H65.7007V19.9274H63.5552V23.3871C62.9661 23.535 62.9271 23.5058 62.9267 22.9544C62.9259 21.8775 62.9349 20.8005 62.9212 19.7237C62.9173 19.4205 62.9869 19.2869 63.3109 19.2939C64.2046 19.313 65.0988 19.3026 65.9928 19.2994C66.1873 19.2987 66.326 19.3214 66.324 19.5838C66.3144 20.8144 66.3178 22.0452 66.3144 23.2759C66.3073 23.3309 66.2945 23.385 66.2761 23.4371Z" fill="#32394D"/>
<path d="M66.8924 22.8959C67.6749 22.8825 67.7813 22.8256 67.876 22.0192C67.9669 21.2456 67.979 20.4609 68.0003 19.6804C68.0078 19.4049 68.0774 19.2896 68.3608 19.2957C69.0807 19.3112 69.8014 19.2923 70.5211 19.311C70.629 19.3138 70.8252 19.444 70.8263 19.5176C70.8451 20.8096 70.8399 22.1019 70.8399 23.3837C70.2737 23.5437 70.2215 23.5057 70.2211 22.9601C70.2203 21.962 70.2208 20.9638 70.2208 19.9354H68.6436C68.606 20.5692 68.5896 21.1945 68.5241 21.8143C68.4867 22.183 68.4045 22.5454 68.2794 22.893C68.0819 23.4309 67.5154 23.6725 66.9883 23.4787C66.6082 23.339 66.8769 23.0987 66.8924 22.8959Z" fill="#32394D"/>
<path d="M28.0473 19.3343V23.4058C27.4684 23.5194 27.4542 23.5086 27.4534 22.9403C27.4523 22.0819 27.454 21.2235 27.452 20.3652C27.4517 20.2276 27.4387 20.09 27.4304 19.9295H25.8946C25.8673 20.4306 25.8617 20.9272 25.8073 21.4181C25.7681 21.8758 25.687 22.3286 25.565 22.7705C25.345 23.4927 24.7246 23.7226 24.0472 23.3832C24.044 23.0668 24.0548 22.7966 24.5047 22.8915C24.8299 22.96 24.9884 22.6961 25.0291 22.4176C25.1248 21.7612 25.1963 21.1001 25.2515 20.4386C25.2811 20.0841 25.2568 19.7249 25.2568 19.3343H28.0473Z" fill="#32394D"/>
<path d="M77.172 19.9044C76.7503 19.9044 76.3937 19.8986 76.0374 19.9067C75.8461 19.9111 75.7351 19.8664 75.7364 19.6338C75.7376 19.4193 75.7817 19.2976 76.0215 19.2994C76.9883 19.3066 77.9552 19.3052 78.922 19.3008C79.1336 19.2998 79.1994 19.3981 79.1982 19.6056C79.197 19.8093 79.144 19.9146 78.9243 19.9072C78.5659 19.895 78.2068 19.9039 77.7941 19.9039V23.4247H77.172L77.172 19.9044Z" fill="#32394D"/>
<path d="M33.0312 19.3299H36.3946V19.9048C36.0647 19.9048 35.734 19.9257 35.407 19.8989C35.0873 19.8727 35.0038 20.0059 35.0089 20.3154C35.0236 21.1994 35.0137 22.0837 35.0135 22.968C35.0134 23.1183 35.0134 23.2686 35.0134 23.4373H34.4195V19.9028H33.0312V19.3299Z" fill="#32394D"/>
<path d="M38.9092 18.8244C38.9601 18.5675 38.9601 18.2774 39.0868 18.07C39.1376 17.9869 39.586 18.0144 39.6442 18.1175C39.7463 18.2984 39.7792 18.6539 39.6699 18.792C39.5584 18.9329 39.241 18.9001 39.0137 18.9434C38.9789 18.9037 38.9441 18.864 38.9092 18.8244Z" fill="#32394D"/>
<path d="M37.7393 18.472C37.6762 18.141 37.8037 18.0343 38.1335 18.0263C38.51 18.0171 38.5025 18.222 38.5123 18.5006C38.523 18.804 38.4453 18.9221 38.1257 18.9248C37.7825 18.9276 37.6827 18.7913 37.7393 18.472Z" fill="#32394D"/>
</svg>
