<svg width="32" height="25" viewBox="0 0 32 25" fill="none" xmlns="http://www.w3.org/2000/svg">
<path d="M6.16455 24.6317V22.9986C6.16455 22.3725 5.7974 21.9643 5.16809 21.9643C4.85349 21.9643 4.51262 22.0731 4.27662 22.427C4.09316 22.1276 3.831 21.9643 3.43769 21.9643C3.17541 21.9643 2.91337 22.0459 2.70352 22.3453V22.0187H2.15291V24.6317H2.70352V23.1891C2.70352 22.7265 2.93952 22.5086 3.30667 22.5086C3.67358 22.5086 3.85727 22.7536 3.85727 23.1891V24.6317H4.40788V23.1891C4.40788 22.7265 4.66992 22.5086 5.01079 22.5086C5.37794 22.5086 5.5614 22.7536 5.5614 23.1891V24.6317H6.16455ZM14.3186 22.0187H13.4273V21.2294H12.8766V22.0187H12.3785V22.5358H12.8765V23.7335C12.8765 24.3324 13.1125 24.6861 13.7418 24.6861C13.9779 24.6861 14.2399 24.6045 14.4236 24.4957L14.2662 24.0057C14.1089 24.1145 13.9254 24.1418 13.7943 24.1418C13.5321 24.1418 13.4273 23.9785 13.4273 23.7062V22.5358H14.3186V22.0187ZM18.9857 21.9642C18.6711 21.9642 18.4614 22.1276 18.3302 22.3453V22.0187H17.7796V24.6317H18.3302V23.1619C18.3302 22.7265 18.5137 22.4814 18.8546 22.4814C18.9594 22.4814 19.0906 22.5087 19.1954 22.5359L19.3527 21.9916C19.2479 21.9643 19.0906 21.9642 18.9857 21.9642ZM11.9327 22.2364C11.6705 22.0459 11.3034 21.9643 10.9101 21.9643C10.2809 21.9643 9.86147 22.2909 9.86147 22.808C9.86147 23.2436 10.1761 23.4885 10.7267 23.5702L10.9888 23.5975C11.2773 23.6518 11.4346 23.7335 11.4346 23.8697C11.4346 24.0601 11.2248 24.1962 10.8577 24.1962C10.4907 24.1962 10.2022 24.0601 10.0186 23.9241L9.75649 24.3595C10.0449 24.5773 10.4382 24.6861 10.8314 24.6861C11.5656 24.6861 11.9852 24.3324 11.9852 23.8424C11.9852 23.3796 11.6443 23.1346 11.1199 23.053L10.8577 23.0258C10.6217 22.9985 10.4382 22.9442 10.4382 22.7809C10.4382 22.5903 10.6217 22.4814 10.9101 22.4814C11.2248 22.4814 11.5394 22.6175 11.6967 22.6992L11.9327 22.2364ZM26.5631 21.9643C26.2484 21.9643 26.0387 22.1276 25.9075 22.3453V22.0187H25.3569V24.6317H25.9075V23.1619C25.9075 22.7265 26.0911 22.4814 26.4319 22.4814C26.5369 22.4814 26.668 22.5087 26.7729 22.5359L26.9302 21.9916C26.8253 21.9643 26.668 21.9643 26.5631 21.9643ZM19.5363 23.3252C19.5363 24.1145 20.0606 24.6861 20.8735 24.6861C21.2406 24.6861 21.5027 24.6045 21.7649 24.3868L21.5027 23.9241C21.293 24.0874 21.0833 24.169 20.8473 24.169C20.4015 24.169 20.0869 23.8424 20.0869 23.3252C20.0869 22.8353 20.4015 22.5086 20.8473 22.4814C21.0833 22.4814 21.293 22.563 21.5027 22.7265L21.7649 22.2637C21.5027 22.0459 21.2406 21.9643 20.8735 21.9643C20.0606 21.9643 19.5363 22.5359 19.5363 23.3252ZM24.6229 22.0187H24.0723V22.3453C23.8887 22.1004 23.6265 21.9643 23.2857 21.9643C22.5778 21.9643 22.0272 22.5359 22.0272 23.3252C22.0272 24.1145 22.5778 24.6861 23.2857 24.6861C23.6527 24.6861 23.915 24.5501 24.0723 24.3051V24.6317H24.6229V22.0187ZM22.6039 23.3252C22.6039 22.8625 22.8924 22.4814 23.3643 22.4814C23.81 22.4814 24.1247 22.8353 24.1247 23.3252C24.1247 23.7879 23.81 24.169 23.3643 24.169C22.8924 24.1417 22.6039 23.7879 22.6039 23.3252ZM16.023 21.9643C15.2888 21.9643 14.7643 22.5086 14.7643 23.3252C14.7643 24.1418 15.2887 24.6861 16.0491 24.6861C16.4162 24.6861 16.7833 24.5773 17.0717 24.3324L16.8095 23.9241C16.5997 24.0874 16.3376 24.1962 16.0754 24.1962C15.7345 24.1962 15.3937 24.0329 15.3149 23.5701H17.1766V23.3525C17.2029 22.5086 16.731 21.9643 16.023 21.9643ZM16.023 22.4542C16.3637 22.4542 16.5998 22.672 16.6522 23.0803H15.3412C15.3937 22.7265 15.6297 22.4542 16.023 22.4542ZM29.6832 20.9844H29.1326V22.3453C28.949 22.1004 28.6868 21.9643 28.346 21.9643C27.6381 21.9643 27.0875 22.5359 27.0875 23.3252C27.0875 24.1145 27.6381 24.6861 28.346 24.6861C28.7131 24.6861 28.9753 24.5501 29.1326 24.3051V24.6317H29.6832V20.9844ZM27.6643 23.3252C27.6643 22.8625 27.9527 22.4814 28.4247 22.4814C28.8704 22.4814 29.185 22.8353 29.185 23.3252C29.185 23.7879 28.8704 24.169 28.4247 24.169C27.9527 24.1417 27.6643 23.7879 27.6643 23.3252ZM9.25832 22.0187H8.70771V22.3453C8.52414 22.1004 8.26198 21.9643 7.9211 21.9643C7.2132 21.9643 6.6626 22.5359 6.6626 23.3252C6.6626 24.1145 7.2132 24.6861 7.9211 24.6861C8.28825 24.6861 8.55042 24.5501 8.70771 24.3051V24.6317H9.25832V22.0187ZM7.2132 23.3252C7.2132 22.8625 7.50164 22.4814 7.97354 22.4814C8.41927 22.4814 8.73399 22.8353 8.73399 23.3252C8.73399 23.7879 8.41927 24.169 7.97354 24.169C7.50164 24.1417 7.2132 23.7879 7.2132 23.3252Z" fill="#32394D"/>
<path d="M11.7491 2.17592H20.0082V17.5819H11.7491V2.17592Z" fill="#666F8A"/>
<path d="M12.2736 9.87897C12.2736 6.74881 13.6894 3.97241 15.8655 2.1759C14.2663 0.869405 12.2474 0.0800781 10.045 0.0800781C4.82721 0.0800781 0.605957 4.46229 0.605957 9.87897C0.605957 15.2955 4.82721 19.6779 10.0449 19.6779C12.2473 19.6779 14.2662 18.8885 15.8655 17.5819C13.6894 15.8127 12.2736 13.0091 12.2736 9.87897Z" fill="#32394D"/>
<path d="M31.1514 9.87897C31.1514 15.2955 26.9302 19.6779 21.7124 19.6779C19.51 19.6779 17.4912 18.8885 15.8918 17.5819C18.0942 15.7855 19.4839 13.0091 19.4839 9.87897C19.4839 6.74881 18.068 3.97241 15.8918 2.1759C17.4911 0.869405 19.51 0.0800781 21.7124 0.0800781C26.9302 0.0800781 31.1514 4.48957 31.1514 9.87897Z" fill="#495169"/>
</svg>
