<svg width="76" height="20" viewBox="0 0 76 20" fill="none" xmlns="http://www.w3.org/2000/svg">
<path d="M0 10C0 4.47715 4.54808 0 10.1584 0H65.8416C71.4519 0 76 4.47715 76 10C76 15.5228 71.4519 20 65.8416 20H10.1584C4.54808 20 0 15.5228 0 10Z" fill="#CFF75E"/>
<path d="M11.5686 5.93027H13.693C14.6909 5.93027 15.4128 6.07711 15.8586 6.3708C16.3044 6.6645 16.5273 7.12866 16.5273 7.76331C16.5273 8.20216 16.4021 8.56506 16.1518 8.852C15.9049 9.13556 15.5431 9.31954 15.0664 9.40393V9.45457C16.2083 9.64699 16.7793 10.2378 16.7793 11.2269C16.7793 11.8885 16.5513 12.405 16.0952 12.7763C15.6425 13.1477 15.0081 13.3333 14.1919 13.3333H11.5686V5.93027ZM12.443 9.10012H13.8833C14.5006 9.10012 14.9447 9.00559 15.2156 8.81655C15.4865 8.62413 15.6219 8.30175 15.6219 7.84939C15.6219 7.43417 15.4711 7.13542 15.1693 6.95312C14.8675 6.76746 14.3874 6.67462 13.729 6.67462H12.443V9.10012ZM12.443 9.82928V12.5991H14.0119C14.6189 12.5991 15.075 12.4843 15.3802 12.2548C15.6888 12.0218 15.8431 11.6589 15.8431 11.1661C15.8431 10.707 15.6854 10.3694 15.3699 10.1534C15.0578 9.93731 14.5812 9.82928 13.9399 9.82928H12.443Z" fill="#33394F"/>
<path d="M21.8615 7.78356V10.1078H25.0198V7.78356H25.8737V13.3333H25.0198V10.8319H21.8615V13.3333H21.0076V7.78356H21.8615Z" fill="#33394F"/>
<path d="M31.1513 13.3333L30.9816 12.5434H30.9404C30.6592 12.8911 30.378 13.1274 30.0968 13.2523C29.819 13.3738 29.471 13.4346 29.0526 13.4346C28.4936 13.4346 28.0547 13.2928 27.7358 13.0093C27.4203 12.7257 27.2625 12.3223 27.2625 11.799C27.2625 10.6783 28.173 10.0909 29.9939 10.0369L30.9507 10.0065V9.66218C30.9507 9.22671 30.8547 8.90601 30.6626 8.70009C30.474 8.49079 30.1705 8.38614 29.7522 8.38614C29.2824 8.38614 28.7508 8.52792 28.1576 8.81149L27.8952 8.1684C28.173 8.01987 28.4765 7.9034 28.8057 7.81901C29.1383 7.73462 29.471 7.69242 29.8036 7.69242C30.4757 7.69242 30.973 7.83926 31.2953 8.13296C31.6211 8.42665 31.784 8.89757 31.784 9.54572V13.3333H31.1513ZM29.2223 12.7409C29.7539 12.7409 30.1705 12.5974 30.4723 12.3105C30.7775 12.0235 30.9301 11.6218 30.9301 11.1053V10.604L30.0762 10.6395C29.3972 10.6631 28.9069 10.7677 28.6051 10.9534C28.3067 11.1357 28.1576 11.421 28.1576 11.8092C28.1576 12.113 28.2502 12.3442 28.4353 12.5029C28.6239 12.6616 28.8863 12.7409 29.2223 12.7409Z" fill="#33394F"/>
<path d="M37.7509 13.3333H36.8867V8.5026H35.1944C35.1018 9.70438 34.9732 10.658 34.8086 11.3636C34.644 12.0691 34.4297 12.5856 34.1656 12.913C33.905 13.2405 33.5723 13.4042 33.1677 13.4042C32.9825 13.4042 32.8351 13.384 32.7253 13.3435V12.7206C32.8008 12.7409 32.8865 12.751 32.9825 12.751C33.3769 12.751 33.6907 12.3409 33.9238 11.5205C34.157 10.7002 34.3336 9.45457 34.4537 7.78356H37.7509V13.3333Z" fill="#33394F"/>
<path d="M40.3691 7.78356V11.3028L40.3331 12.2244L40.3177 12.513L43.368 7.78356H44.4328V13.3333H43.6355V9.94068L43.6509 9.27228L43.6766 8.614L40.6315 13.3333H39.5667V7.78356H40.3691Z" fill="#33394F"/>
<path d="M46.9944 7.78356V9.80903C46.9944 10.4572 47.3699 10.7812 48.1209 10.7812C48.433 10.7812 48.7313 10.734 49.016 10.6395C49.3006 10.5449 49.623 10.3846 49.983 10.1584V7.78356H50.8369V13.3333H49.983V10.8218C49.623 11.0648 49.2886 11.237 48.98 11.3383C48.6748 11.4361 48.3284 11.4851 47.9409 11.4851C47.3785 11.4851 46.9378 11.3399 46.6189 11.0496C46.3 10.7593 46.1405 10.366 46.1405 9.86979V7.78356H46.9944Z" fill="#33394F"/>
<path d="M53.4551 7.78356V11.3028L53.4191 12.2244L53.4037 12.513L56.454 7.78356H57.5188V13.3333H56.7215V9.94068L56.7369 9.27228L56.7626 8.614L53.7175 13.3333H52.6527V7.78356H53.4551Z" fill="#33394F"/>
<path d="M60.1319 7.78356V11.3028L60.0959 12.2244L60.0804 12.513L63.1308 7.78356H64.1955V13.3333H63.3982V9.94068L63.4137 9.27228L63.4394 8.614L60.3942 13.3333H59.3294V7.78356H60.1319Z" fill="#33394F"/>
</svg>
